<svg width="416" height="125" viewBox="0 0 416 125" fill="none" xmlns="http://www.w3.org/2000/svg">
<g filter="url(#filter0_b_306_20)">
<path d="M11.6382 98.3061C10.3558 98.3061 9.39395 98.1137 8.75272 97.729C8.17562 97.4084 7.79088 96.9274 7.59852 96.2862C7.40615 95.5809 7.30997 94.7793 7.30997 93.8816V35.4981C7.30997 33.8309 7.63058 32.7088 8.2718 32.1317C8.97715 31.4904 10.1955 31.1698 11.9268 31.1698H50.5927C51.4904 31.1698 52.2278 31.266 52.8049 31.4584C53.4461 31.6507 53.927 32.0675 54.2476 32.7088C54.5682 33.35 54.7286 34.3118 54.7286 35.5943C54.7286 36.8767 54.5362 37.8386 54.1515 38.4798C53.8308 39.0569 53.3499 39.4416 52.7087 39.634C52.0675 39.8264 51.298 39.9225 50.4003 39.9225H15.9665V59.8326H39.9163C40.814 59.8326 41.5514 59.9288 42.1285 60.1211C42.7697 60.3135 43.2506 60.6982 43.5712 61.2753C43.8919 61.8524 44.0522 62.7501 44.0522 63.9685C44.0522 65.1227 43.8919 65.9883 43.5712 66.5654C43.2506 67.1425 42.7697 67.5273 42.1285 67.7196C41.5514 67.8479 40.7819 67.912 39.8201 67.912H15.9665V93.9778C15.9665 94.8755 15.8703 95.645 15.678 96.2862C15.4856 96.9274 15.0688 97.4084 14.4276 97.729C13.8505 98.1137 12.9207 98.3061 11.6382 98.3061ZM71.0663 98.3061C69.7838 98.3061 68.822 98.1137 68.1807 97.729C67.6036 97.4084 67.2189 96.9274 67.0265 96.2862C66.8342 95.5809 66.738 94.7793 66.738 93.8816V35.4981C66.738 34.6004 66.8342 33.8309 67.0265 33.1897C67.283 32.5484 67.6998 32.0675 68.2769 31.7469C68.9182 31.3622 69.88 31.1698 71.1624 31.1698C72.4449 31.1698 73.3747 31.3622 73.9518 31.7469C74.593 32.0675 74.9777 32.5484 75.106 33.1897C75.2983 33.8309 75.3945 34.6324 75.3945 35.5943V93.9778C75.3945 94.8755 75.2983 95.645 75.106 96.2862C74.9136 96.9274 74.4968 97.4084 73.8556 97.729C73.2785 98.1137 72.3487 98.3061 71.0663 98.3061ZM119.908 98.4984C116.445 98.4984 113.079 97.9855 109.809 96.9595C106.539 95.9335 103.493 94.4587 100.671 92.5351C97.8499 90.6114 95.3492 88.2388 93.169 85.4175C91.0529 82.5319 89.3858 79.3258 88.1674 75.7991C86.9491 72.2082 86.3399 68.2647 86.3399 63.9685C86.3399 59.8646 86.9491 56.0814 88.1674 52.6188C89.3858 49.0921 91.0529 45.9821 93.169 43.289C95.285 40.5958 97.7537 38.3195 100.575 36.4599C103.461 34.5362 106.539 33.0935 109.809 32.1317C113.143 31.1057 116.542 30.5927 120.004 30.5927C123.21 30.5927 125.968 30.9133 128.276 31.5546C130.584 32.1958 132.476 32.9011 133.951 33.6706C135.426 34.3759 136.42 34.921 136.933 35.3057C137.83 35.8187 138.696 36.4279 139.53 37.1332C140.363 37.8386 140.812 38.6722 140.876 39.634C141.004 40.3393 140.94 40.9164 140.684 41.3653C140.491 41.8142 140.235 42.2951 139.914 42.8081C139.401 43.5775 138.856 44.1546 138.279 44.5394C137.766 44.86 137.189 45.0203 136.548 45.0203C135.907 45.0203 135.33 44.8279 134.817 44.4432C134.304 44.0584 133.63 43.6096 132.797 43.0966C132.412 42.8401 131.642 42.4233 130.488 41.8462C129.334 41.2691 127.859 40.7241 126.064 40.2111C124.268 39.634 122.088 39.3454 119.523 39.3454C116.253 39.3454 113.111 39.9546 110.097 41.1729C107.148 42.3271 104.551 43.9943 102.306 46.1745C100.062 48.3546 98.2988 50.9837 97.0163 54.0616C95.7339 57.1394 95.0927 60.602 95.0927 64.4494C95.0927 68.3609 95.7339 71.8876 97.0163 75.0296C98.2988 78.1075 100.062 80.7365 102.306 82.9167C104.615 85.0968 107.244 86.764 110.194 87.9182C113.143 89.0724 116.253 89.6495 119.523 89.6495C121.96 89.6495 124.076 89.393 125.871 88.8801C127.731 88.3671 129.238 87.822 130.392 87.2449C131.61 86.6037 132.444 86.1228 132.893 85.8022C133.598 85.4175 134.207 85.0327 134.72 84.648C135.297 84.2632 135.907 84.0709 136.548 84.0709C137.189 84.0709 137.766 84.2632 138.279 84.648C138.856 84.9686 139.401 85.5136 139.914 86.2831C140.235 86.732 140.491 87.2449 140.684 87.822C140.94 88.335 141.004 88.9121 140.876 89.5534C140.812 90.5152 140.363 91.3488 139.53 92.0541C138.696 92.6954 137.83 93.3045 136.933 93.8816C136.355 94.1381 135.33 94.6832 133.855 95.5167C132.444 96.2862 130.584 96.9595 128.276 97.5366C125.968 98.1778 123.178 98.4984 119.908 98.4984ZM202.144 31.1698C202.978 31.1698 203.651 31.266 204.164 31.4584C204.741 31.6507 205.19 32.0355 205.511 32.6126C205.831 33.1256 205.992 33.9912 205.992 35.2095C205.992 36.3637 205.799 37.2294 205.415 37.8065C205.094 38.3836 204.645 38.7683 204.068 38.9607C203.491 39.0889 202.786 39.1531 201.952 39.1531H182.042V94.074C182.042 94.9076 181.914 95.645 181.657 96.2862C181.465 96.9274 181.048 97.4084 180.407 97.729C179.83 98.1137 178.932 98.3061 177.714 98.3061C176.431 98.3061 175.469 98.1137 174.828 97.729C174.251 97.4084 173.866 96.9274 173.674 96.2862C173.546 95.5809 173.482 94.8114 173.482 93.9778V39.1531H153.283C152.449 39.1531 151.744 39.0889 151.167 38.9607C150.59 38.7683 150.141 38.3836 149.82 37.8065C149.5 37.2294 149.34 36.3637 149.34 35.2095C149.34 33.9912 149.468 33.1256 149.724 32.6126C150.045 32.0355 150.494 31.6507 151.071 31.4584C151.712 31.266 152.417 31.1698 153.187 31.1698H202.144ZM221.099 98.3061C219.88 98.3061 218.951 98.1137 218.309 97.729C217.668 97.4084 217.251 96.9274 217.059 96.2862C216.931 95.5809 216.867 94.7793 216.867 93.8816V35.4019C216.867 34.5683 216.963 33.863 217.155 33.2859C217.412 32.6446 217.828 32.1317 218.405 31.7469C219.047 31.3622 219.976 31.1698 221.195 31.1698H242.451C245.593 31.1698 248.447 31.6507 251.012 32.6126C253.641 33.5103 255.917 34.8569 257.841 36.6523C259.764 38.4477 261.239 40.7241 262.265 43.4813C263.355 46.1745 263.9 49.3165 263.9 52.9073C263.9 55.1516 263.548 57.4921 262.842 59.9288C262.137 62.3013 261.047 64.5456 259.572 66.6616C258.161 68.7777 256.334 70.541 254.09 71.9517C251.845 73.3624 249.12 74.164 245.914 74.3563H225.523V93.9778C225.523 94.8755 225.395 95.645 225.138 96.2862C224.946 96.9274 224.529 97.4084 223.888 97.729C223.311 98.1137 222.381 98.3061 221.099 98.3061ZM262.361 97.2481C261.015 98.1458 259.861 98.4343 258.899 98.1137C258.001 97.7931 257.135 97.0236 256.302 95.8053L240.912 71.1823L250.435 69.7395L263.708 90.8999C264.349 91.9259 264.734 92.7915 264.862 93.4969C265.055 94.2022 264.926 94.8435 264.478 95.4206C264.093 95.9977 263.387 96.6068 262.361 97.2481ZM225.523 65.8922H244.567C246.042 65.8922 247.421 65.6357 248.703 65.1227C249.986 64.5456 251.108 63.712 252.07 62.6219C253.032 61.5318 253.801 60.1852 254.378 58.5822C254.955 56.9791 255.244 55.0554 255.244 52.8112C255.244 50.0539 254.731 47.7134 253.705 45.7897C252.743 43.8661 251.3 42.4233 249.377 41.4615C247.453 40.4355 245.08 39.9225 242.259 39.9225H225.523V65.8922ZM357.559 98.3061C356.468 98.3061 355.603 98.1137 354.962 97.729C354.384 97.3442 353.968 96.8313 353.711 96.19C353.519 95.4847 353.423 94.6832 353.423 93.7854V35.2095C353.423 34.3759 353.551 33.6706 353.807 33.0935C354.064 32.5164 354.513 32.0675 355.154 31.7469C355.859 31.3622 356.821 31.1698 358.039 31.1698C359.45 31.1698 360.444 31.2981 361.021 31.5546C361.598 31.811 362.175 32.2599 362.752 32.9011L398.918 84.0709V35.2095C398.918 34.3759 399.014 33.6706 399.206 33.0935C399.463 32.5164 399.911 32.0675 400.553 31.7469C401.194 31.3622 402.124 31.1698 403.342 31.1698C404.496 31.1698 405.362 31.3622 405.939 31.7469C406.58 32.1317 406.997 32.6767 407.189 33.382C407.446 34.0233 407.574 34.7607 407.574 35.5943V93.8816C407.574 94.7152 407.414 95.4847 407.093 96.19C406.837 96.8313 406.356 97.3442 405.65 97.729C405.009 98.1137 404.079 98.3061 402.861 98.3061C401.835 98.3061 400.969 98.1778 400.264 97.9213C399.623 97.6649 399.014 97.1839 398.437 96.4786L362.079 45.6936V93.8816C362.079 94.7152 361.951 95.4847 361.694 96.19C361.438 96.8313 360.989 97.3442 360.348 97.729C359.707 98.1137 358.777 98.3061 357.559 98.3061Z" fill="#078F87"/>
</g>
<path fill-rule="evenodd" clip-rule="evenodd" d="M323.801 34.1212C318.825 31.5591 313.181 30.1128 307.199 30.1128C287.143 30.1128 270.885 46.3713 270.885 66.4271C270.885 77.7889 276.103 87.932 284.273 94.5908L287.223 88.6833C281.127 83.2085 277.293 75.2655 277.293 66.4271C277.293 49.9105 290.683 36.5212 307.199 36.5212C310.811 36.5212 314.274 37.1616 317.48 38.3352L323.801 34.1212ZM333.423 52.0404C335.77 56.3089 337.105 61.2121 337.105 66.4271C337.105 82.9436 323.716 96.333 307.199 96.333C303.265 96.333 299.508 95.5732 296.067 94.1923L293.195 99.9427C297.504 101.745 302.235 102.741 307.199 102.741C327.255 102.741 343.513 86.4829 343.513 66.4271C343.513 58.565 341.015 51.2866 336.769 45.3423L333.423 52.0404Z" fill="#078F87"/>
<path d="M285.411 99.7707C285.458 103.032 285.967 103.682 287.061 104.393C287.258 102.568 287.554 101.548 290.363 99.7707C300.506 67.6936 309.17 57.01 326.677 42.9884C308.331 61.1615 302.567 70.6632 296.965 86.8957C304.054 86.5672 307.208 84.6246 311.821 78.9725L306.539 79.6328C311.993 77.5318 314.698 75.8856 318.094 71.0494C313.181 72.9488 309.247 72.1026 308.19 72.3699C317.51 69.6408 321.262 65.7876 326.017 55.8635L316.443 59.1648C324.693 55.1901 329.179 52.6799 334.6 42.9884C333.627 43.3962 332.92 43.6125 331.299 43.9788C334.738 40.6092 335.703 38.841 335.921 36.0557C317.88 37.9421 317.122 43.1052 311.821 50.5814C312.411 47.899 312.923 46.4543 314.132 43.9788C311.734 46.7675 310.548 48.5967 308.85 52.5622C308.388 51.4361 308.347 50.4787 308.85 47.9403C304.177 53.0267 302.674 56.1562 301.587 62.1359C301.437 58.8528 301.374 56.9026 300.597 56.8538C297.805 62.2141 296.551 65.8477 295.645 75.011C294.67 75.1728 294.227 74.6099 293.994 70.059C291.712 75.5563 291.121 78.8754 292.344 85.5751L285.411 99.7707Z" fill="url(#paint0_radial_306_20)"/>
<defs>
<filter id="filter0_b_306_20" x="-0.541768" y="22.741" width="415.968" height="83.7054" filterUnits="userSpaceOnUse" color-interpolation-filters="sRGB">
<feFlood flood-opacity="0" result="BackgroundImageFix"/>
<feGaussianBlur in="BackgroundImageFix" stdDeviation="3.92587"/>
<feComposite in2="SourceAlpha" operator="in" result="effect1_backgroundBlur_306_20"/>
<feBlend mode="normal" in="SourceGraphic" in2="effect1_backgroundBlur_306_20" result="shape"/>
</filter>
<radialGradient id="paint0_radial_306_20" cx="0" cy="0" r="1" gradientUnits="userSpaceOnUse" gradientTransform="translate(315.238 66.342) rotate(147.265) scale(36.0591 26.6524)">
<stop stop-color="#420D0A"/>
<stop offset="0.947346" stop-color="#078F87"/>
</radialGradient>
</defs>
</svg>
