<svg width="384" height="88" viewBox="0 0 384 88" fill="none" xmlns="http://www.w3.org/2000/svg">
<g filter="url(#filter0_b_184_460)">
<path d="M10.7434 77.8879C9.55956 77.8879 8.67168 77.7103 8.07975 77.3552C7.54702 77.0592 7.19187 76.6152 7.01429 76.0233C6.83671 75.3722 6.74793 74.6323 6.74793 73.8036V19.909C6.74793 18.37 7.04389 17.3341 7.63581 16.8014C8.28693 16.2095 9.41158 15.9135 11.0098 15.9135H46.7028C47.5314 15.9135 48.2122 16.0023 48.7449 16.1799C49.3368 16.3575 49.7808 16.7422 50.0767 17.3341C50.3727 17.926 50.5207 18.8139 50.5207 19.9978C50.5207 21.1816 50.3431 22.0695 49.9879 22.6614C49.692 23.1942 49.248 23.5493 48.6561 23.7269C48.0642 23.9045 47.3539 23.9933 46.5252 23.9933H14.7389V42.3725H36.8472C37.6759 42.3725 38.3566 42.4613 38.8894 42.6388C39.4813 42.8164 39.9252 43.1716 40.2212 43.7043C40.5172 44.237 40.6651 45.0657 40.6651 46.1904C40.6651 47.2559 40.5172 48.0549 40.2212 48.5877C39.9252 49.1204 39.4813 49.4756 38.8894 49.6531C38.3566 49.7715 37.6463 49.8307 36.7584 49.8307H14.7389V73.8924C14.7389 74.7211 14.6501 75.4314 14.4725 76.0233C14.2949 76.6152 13.9102 77.0592 13.3183 77.3552C12.7855 77.7103 11.9273 77.8879 10.7434 77.8879ZM65.6022 77.8879C64.4184 77.8879 63.5305 77.7103 62.9386 77.3552C62.4058 77.0592 62.0507 76.6152 61.8731 76.0233C61.6955 75.3722 61.6067 74.6323 61.6067 73.8036V19.909C61.6067 19.0803 61.6955 18.37 61.8731 17.7781C62.1099 17.1861 62.4946 16.7422 63.0273 16.4462C63.6193 16.0911 64.5072 15.9135 65.691 15.9135C66.8749 15.9135 67.7331 16.0911 68.2659 16.4462C68.8578 16.7422 69.2129 17.1861 69.3313 17.7781C69.5089 18.37 69.5977 19.1099 69.5977 19.9978V73.8924C69.5977 74.7211 69.5089 75.4314 69.3313 76.0233C69.1538 76.6152 68.769 77.0592 68.1771 77.3552C67.6444 77.7103 66.7861 77.8879 65.6022 77.8879ZM110.689 78.0655C107.492 78.0655 104.385 77.5919 101.366 76.6448C98.3471 75.6978 95.5355 74.3363 92.931 72.5606C90.3266 70.7848 88.0181 68.5947 86.0055 65.9902C84.0522 63.3266 82.5132 60.367 81.3885 57.1114C80.2639 53.7966 79.7016 50.1563 79.7016 46.1904C79.7016 42.4021 80.2639 38.9097 81.3885 35.7133C82.5132 32.4578 84.0522 29.5869 86.0055 27.1009C87.9589 24.6148 90.2378 22.5135 92.8423 20.7969C95.5059 19.0211 98.3471 17.6893 101.366 16.8014C104.444 15.8543 107.581 15.3808 110.778 15.3808C113.737 15.3808 116.282 15.6767 118.413 16.2687C120.544 16.8606 122.29 17.5117 123.652 18.222C125.013 18.8731 125.931 19.3763 126.404 19.7314C127.233 20.205 128.032 20.7673 128.802 21.4184C129.571 22.0695 129.985 22.839 130.045 23.7269C130.163 24.378 130.104 24.9107 129.867 25.3251C129.689 25.7394 129.453 26.1834 129.157 26.6569C128.683 27.3672 128.18 27.9 127.647 28.2551C127.174 28.5511 126.641 28.6991 126.049 28.6991C125.457 28.6991 124.924 28.5215 124.451 28.1663C123.977 27.8112 123.356 27.3968 122.586 26.9233C122.231 26.6865 121.521 26.3018 120.455 25.769C119.39 25.2363 118.029 24.7332 116.371 24.2596C114.714 23.7269 112.701 23.4605 110.334 23.4605C107.315 23.4605 104.414 24.0229 101.632 25.1475C98.9095 26.213 96.5122 27.752 94.4404 29.7645C92.3687 31.7771 90.7409 34.2039 89.5571 37.0452C88.3732 39.8864 87.7813 43.0828 87.7813 46.6343C87.7813 50.2451 88.3732 53.5006 89.5571 56.4011C90.7409 59.2423 92.3687 61.6692 94.4404 63.6817C96.5714 65.6943 98.9983 67.2333 101.721 68.2987C104.444 69.3642 107.315 69.8969 110.334 69.8969C112.583 69.8969 114.536 69.6602 116.194 69.1866C117.91 68.7131 119.301 68.2099 120.367 67.6772C121.491 67.0853 122.261 66.6413 122.675 66.3454C123.326 65.9902 123.889 65.6351 124.362 65.2799C124.895 64.9248 125.457 64.7472 126.049 64.7472C126.641 64.7472 127.174 64.9248 127.647 65.2799C128.18 65.5759 128.683 66.079 129.157 66.7893C129.453 67.2037 129.689 67.6772 129.867 68.2099C130.104 68.6835 130.163 69.2162 130.045 69.8081C129.985 70.696 129.571 71.4655 128.802 72.1166C128.032 72.7086 127.233 73.2709 126.404 73.8036C125.872 74.0404 124.924 74.5435 123.563 75.313C122.261 76.0233 120.544 76.6448 118.413 77.1776C116.282 77.7695 113.708 78.0655 110.689 78.0655ZM186.602 15.9135C187.372 15.9135 187.993 16.0023 188.467 16.1799C189 16.3575 189.414 16.7126 189.71 17.2453C190.006 17.7189 190.154 18.518 190.154 19.6426C190.154 20.7081 189.976 21.5072 189.621 22.0399C189.325 22.5726 188.911 22.9278 188.378 23.1054C187.845 23.2238 187.194 23.283 186.425 23.283H168.045V73.9812C168.045 74.7507 167.927 75.4314 167.69 76.0233C167.513 76.6152 167.128 77.0592 166.536 77.3552C166.003 77.7103 165.175 77.8879 164.05 77.8879C162.866 77.8879 161.978 77.7103 161.386 77.3552C160.854 77.0592 160.498 76.6152 160.321 76.0233C160.202 75.3722 160.143 74.6619 160.143 73.8924V23.283H141.498C140.728 23.283 140.077 23.2238 139.544 23.1054C139.012 22.9278 138.597 22.5726 138.301 22.0399C138.005 21.5072 137.857 20.7081 137.857 19.6426C137.857 18.518 137.976 17.7189 138.212 17.2453C138.508 16.7126 138.923 16.3575 139.456 16.1799C140.047 16.0023 140.699 15.9135 141.409 15.9135H186.602ZM204.099 77.8879C202.974 77.8879 202.116 77.7103 201.524 77.3552C200.932 77.0592 200.548 76.6152 200.37 76.0233C200.252 75.3722 200.192 74.6323 200.192 73.8036V19.8202C200.192 19.0507 200.281 18.3996 200.459 17.8669C200.696 17.2749 201.08 16.8014 201.613 16.4462C202.205 16.0911 203.063 15.9135 204.188 15.9135H223.81C226.711 15.9135 229.345 16.3575 231.712 17.2453C234.139 18.074 236.241 19.3171 238.016 20.9745C239.792 22.6318 241.153 24.7332 242.101 27.2784C243.107 29.7645 243.61 32.6649 243.61 35.9797C243.61 38.0514 243.284 40.212 242.633 42.4613C241.982 44.6514 240.976 46.7231 239.614 48.6765C238.312 50.6298 236.625 52.2576 234.554 53.5598C232.482 54.8621 229.966 55.602 227.007 55.7795H208.183V73.8924C208.183 74.7211 208.065 75.4314 207.828 76.0233C207.651 76.6152 207.266 77.0592 206.674 77.3552C206.141 77.7103 205.283 77.8879 204.099 77.8879ZM242.189 76.9112C240.946 77.7399 239.881 78.0063 238.993 77.7103C238.164 77.4143 237.365 76.704 236.596 75.5794L222.39 52.8495L231.18 51.5177L243.432 71.0512C244.024 71.9982 244.379 72.7973 244.498 73.4485C244.675 74.0996 244.557 74.6915 244.143 75.2242C243.788 75.757 243.136 76.3193 242.189 76.9112ZM208.183 47.9662H225.763C227.125 47.9662 228.398 47.7294 229.581 47.2559C230.765 46.7231 231.801 45.9536 232.689 44.9473C233.577 43.9411 234.287 42.698 234.82 41.2182C235.353 39.7384 235.619 37.9627 235.619 35.8909C235.619 33.3457 235.145 31.1851 234.198 29.4094C233.311 27.6336 231.979 26.3018 230.203 25.4139C228.427 24.4668 226.237 23.9933 223.633 23.9933H208.183V47.9662ZM330.067 77.8879C329.061 77.8879 328.262 77.7103 327.67 77.3552C327.137 77 326.752 76.5265 326.516 75.9345C326.338 75.2834 326.249 74.5435 326.249 73.7148V19.6426C326.249 18.8731 326.368 18.222 326.604 17.6893C326.841 17.1565 327.255 16.7422 327.847 16.4462C328.498 16.0911 329.386 15.9135 330.511 15.9135C331.813 15.9135 332.731 16.0319 333.263 16.2687C333.796 16.5054 334.329 16.9198 334.862 17.5117L368.246 64.7472V19.6426C368.246 18.8731 368.335 18.222 368.513 17.6893C368.749 17.1565 369.164 16.7422 369.756 16.4462C370.347 16.0911 371.206 15.9135 372.33 15.9135C373.396 15.9135 374.195 16.0911 374.728 16.4462C375.32 16.8014 375.704 17.3045 375.882 17.9556C376.119 18.5476 376.237 19.2283 376.237 19.9978V73.8036C376.237 74.5731 376.089 75.2834 375.793 75.9345C375.556 76.5265 375.112 77 374.461 77.3552C373.869 77.7103 373.011 77.8879 371.886 77.8879C370.939 77.8879 370.14 77.7695 369.489 77.5327C368.897 77.296 368.335 76.852 367.802 76.2009L334.24 29.3206V73.8036C334.24 74.5731 334.122 75.2834 333.885 75.9345C333.648 76.5265 333.234 77 332.642 77.3552C332.05 77.7103 331.192 77.8879 330.067 77.8879Z" fill="#078F87"/>
</g>
<path fill-rule="evenodd" clip-rule="evenodd" d="M298.905 18.2566C294.312 15.8915 289.101 14.5564 283.58 14.5564C265.066 14.5564 250.057 29.5648 250.057 48.0786C250.057 58.5668 254.874 67.93 262.416 74.0769L265.139 68.6236C259.512 63.5696 255.973 56.2374 255.973 48.0786C255.973 32.8319 268.333 20.4721 283.58 20.4721C286.914 20.4721 290.11 21.0633 293.07 22.1465L298.905 18.2566ZM307.788 34.798C309.954 38.7383 311.186 43.2645 311.186 48.0786C311.186 63.3252 298.826 75.6851 283.58 75.6851C279.948 75.6851 276.479 74.9837 273.303 73.709L270.652 79.0172C274.63 80.6815 278.998 81.6008 283.58 81.6008C302.093 81.6008 317.102 66.5924 317.102 48.0786C317.102 40.821 314.795 34.1021 310.876 28.6148L307.788 34.798Z" fill="#078F87"/>
<path d="M263.466 78.8585C263.51 81.8689 263.98 82.4693 264.99 83.1249C265.172 81.4406 265.445 80.4994 268.038 78.8585C277.401 49.2476 285.399 39.3855 301.56 26.4419C284.624 43.2178 279.304 51.9889 274.133 66.9733C280.676 66.6701 283.588 64.8768 287.846 59.6594L282.97 60.2689C288.005 58.3294 290.502 56.8098 293.636 52.3454C289.101 54.0987 285.47 53.3176 284.494 53.5644C293.098 51.0451 296.561 47.4882 300.95 38.3271L292.113 41.3745C299.729 37.7055 303.869 35.3883 308.874 26.4419C307.976 26.8184 307.323 27.0181 305.826 27.3562C309.001 24.2456 309.892 22.6134 310.093 20.0422C293.439 21.7836 292.74 26.5498 287.846 33.4511C288.391 30.975 288.864 29.6414 289.979 27.3562C287.766 29.9305 286.671 31.6191 285.104 35.2796C284.677 34.2402 284.639 33.3563 285.104 31.0131C280.79 35.7084 279.403 38.5973 278.399 44.1173C278.26 41.0866 278.202 39.2864 277.485 39.2413C274.908 44.1894 273.75 47.5436 272.914 56.0024C272.013 56.1518 271.604 55.6321 271.39 51.4312C269.283 56.5058 268.738 59.5697 269.866 65.7543L263.466 78.8585Z" fill="url(#paint0_radial_184_460)"/>
<defs>
<filter id="filter0_b_184_460" x="-0.500117" y="8.13282" width="383.985" height="77.2695" filterUnits="userSpaceOnUse" color-interpolation-filters="sRGB">
<feFlood flood-opacity="0" result="BackgroundImageFix"/>
<feGaussianBlur in="BackgroundImageFix" stdDeviation="3.62402"/>
<feComposite in2="SourceAlpha" operator="in" result="effect1_backgroundBlur_184_460"/>
<feBlend mode="normal" in="SourceGraphic" in2="effect1_backgroundBlur_184_460" result="shape"/>
</filter>
<radialGradient id="paint0_radial_184_460" cx="0" cy="0" r="1" gradientUnits="userSpaceOnUse" gradientTransform="translate(291 48) rotate(147.265) scale(33.2866 24.6032)">
<stop stop-color="#420D0A"/>
<stop offset="0.947346" stop-color="#078F87"/>
</radialGradient>
</defs>
</svg>
