<svg width="203" height="61" viewBox="0 0 203 61" fill="none" xmlns="http://www.w3.org/2000/svg">
<g filter="url(#filter0_b_277_31)">
<path d="M5.67946 47.4694C5.05362 47.4694 4.58425 47.3755 4.27133 47.1878C3.9897 47.0313 3.80195 46.7966 3.70808 46.4837C3.6142 46.1395 3.56726 45.7483 3.56726 45.3102V16.8191C3.56726 16.0055 3.72372 15.4579 4.03664 15.1763C4.38085 14.8633 4.97539 14.7069 5.82027 14.7069H24.6892C25.1273 14.7069 25.4872 14.7538 25.7688 14.8477C26.0817 14.9416 26.3164 15.145 26.4728 15.4579C26.6293 15.7708 26.7075 16.2402 26.7075 16.866C26.7075 17.4919 26.6137 17.9612 26.4259 18.2741C26.2694 18.5558 26.0348 18.7435 25.7218 18.8374C25.4089 18.9313 25.0334 18.9782 24.5953 18.9782H7.79165V28.6943H19.4791C19.9172 28.6943 20.2771 28.7412 20.5587 28.8351C20.8716 28.929 21.1063 29.1167 21.2628 29.3984C21.4192 29.68 21.4975 30.1181 21.4975 30.7126C21.4975 31.2759 21.4192 31.6983 21.2628 31.9799C21.1063 32.2616 20.8716 32.4493 20.5587 32.5432C20.2771 32.6058 19.9016 32.6371 19.4322 32.6371H7.79165V45.3572C7.79165 45.7953 7.74472 46.1708 7.65084 46.4837C7.55696 46.7966 7.35357 47.0313 7.04065 47.1878C6.75902 47.3755 6.30529 47.4694 5.67946 47.4694ZM34.6803 47.4694C34.0545 47.4694 33.5851 47.3755 33.2722 47.1878C32.9906 47.0313 32.8028 46.7966 32.709 46.4837C32.6151 46.1395 32.5681 45.7483 32.5681 45.3102V16.8191C32.5681 16.381 32.6151 16.0055 32.709 15.6926C32.8341 15.3797 33.0375 15.145 33.3191 14.9885C33.6321 14.8008 34.1014 14.7069 34.7273 14.7069C35.3531 14.7069 35.8068 14.8008 36.0885 14.9885C36.4014 15.145 36.5891 15.3797 36.6517 15.6926C36.7456 16.0055 36.7925 16.3966 36.7925 16.866V45.3572C36.7925 45.7953 36.7456 46.1708 36.6517 46.4837C36.5578 46.7966 36.3544 47.0313 36.0415 47.1878C35.7599 47.3755 35.3062 47.4694 34.6803 47.4694ZM58.5151 47.5633C56.8254 47.5633 55.1826 47.3129 53.5867 46.8122C51.9908 46.3116 50.5044 45.5919 49.1276 44.6531C47.7508 43.7144 46.5304 42.5566 45.4665 41.1797C44.4338 39.7716 43.6203 38.207 43.0257 36.486C42.4312 34.7336 42.1339 32.8092 42.1339 30.7126C42.1339 28.71 42.4312 26.8637 43.0257 25.174C43.6203 23.4529 44.4338 21.9353 45.4665 20.621C46.4991 19.3068 47.7038 18.1959 49.0807 17.2885C50.4888 16.3497 51.9908 15.6456 53.5867 15.1763C55.2139 14.6756 56.8723 14.4253 58.5621 14.4253C60.1267 14.4253 61.4722 14.5817 62.5987 14.8946C63.7252 15.2076 64.6483 15.5518 65.368 15.9273C66.0878 16.2715 66.5728 16.5375 66.8231 16.7252C67.2612 16.9755 67.6836 17.2728 68.0904 17.617C68.4972 17.9612 68.7163 18.368 68.7476 18.8374C68.8101 19.1816 68.7788 19.4632 68.6537 19.6823C68.5598 19.9013 68.4346 20.136 68.2782 20.3863C68.0278 20.7618 67.7619 21.0435 67.4802 21.2312C67.2299 21.3877 66.9483 21.4659 66.6354 21.4659C66.3224 21.4659 66.0408 21.372 65.7905 21.1843C65.5401 20.9965 65.2116 20.7775 64.8048 20.5272C64.617 20.402 64.2415 20.1986 63.6783 19.917C63.115 19.6353 62.3953 19.3694 61.5192 19.119C60.643 18.8374 59.5791 18.6966 58.3274 18.6966C56.7315 18.6966 55.1982 18.9939 53.7275 19.5884C52.2881 20.1517 51.0208 20.9652 49.9255 22.0292C48.8303 23.0931 47.9698 24.376 47.344 25.878C46.7181 27.3801 46.4052 29.0698 46.4052 30.9473C46.4052 32.8561 46.7181 34.5772 47.344 36.1105C47.9698 37.6125 48.8303 38.8954 49.9255 39.9593C51.0521 41.0233 52.335 41.8369 53.7744 42.4001C55.2139 42.9634 56.7315 43.245 58.3274 43.245C59.5165 43.245 60.5491 43.1198 61.4253 42.8695C62.3327 42.6192 63.0681 42.3532 63.6313 42.0715C64.2259 41.7586 64.6327 41.5239 64.8517 41.3675C65.1959 41.1797 65.4932 40.992 65.7435 40.8042C66.0252 40.6165 66.3224 40.5226 66.6354 40.5226C66.9483 40.5226 67.2299 40.6165 67.4802 40.8042C67.7619 40.9607 68.0278 41.2267 68.2782 41.6022C68.4346 41.8212 68.5598 42.0715 68.6537 42.3532C68.7788 42.6035 68.8101 42.8851 68.7476 43.198C68.7163 43.6674 68.4972 44.0742 68.0904 44.4184C67.6836 44.7313 67.2612 45.0286 66.8231 45.3102C66.5415 45.4354 66.0408 45.7014 65.3211 46.1082C64.6327 46.4837 63.7252 46.8122 62.5987 47.0939C61.4722 47.4068 60.111 47.5633 58.5151 47.5633ZM98.6465 14.7069C99.0533 14.7069 99.3818 14.7538 99.6322 14.8477C99.9138 14.9416 100.133 15.1293 100.289 15.4109C100.446 15.6613 100.524 16.0837 100.524 16.6783C100.524 17.2415 100.43 17.664 100.242 17.9456C100.086 18.2272 99.8669 18.415 99.5852 18.5088C99.3036 18.5714 98.9594 18.6027 98.5526 18.6027H88.8365V45.4041C88.8365 45.8109 88.7739 46.1708 88.6488 46.4837C88.5549 46.7966 88.3515 47.0313 88.0386 47.1878C87.7569 47.3755 87.3189 47.4694 86.7243 47.4694C86.0985 47.4694 85.6291 47.3755 85.3162 47.1878C85.0346 47.0313 84.8468 46.7966 84.7529 46.4837C84.6903 46.1395 84.6591 45.764 84.6591 45.3572V18.6027H74.8021C74.3954 18.6027 74.0511 18.5714 73.7695 18.5088C73.4879 18.415 73.2688 18.2272 73.1124 17.9456C72.9559 17.664 72.8777 17.2415 72.8777 16.6783C72.8777 16.0837 72.9403 15.6613 73.0655 15.4109C73.2219 15.1293 73.441 14.9416 73.7226 14.8477C74.0355 14.7538 74.3797 14.7069 74.7552 14.7069H98.6465ZM107.896 47.4694C107.302 47.4694 106.848 47.3755 106.535 47.1878C106.222 47.0313 106.019 46.7966 105.925 46.4837C105.862 46.1395 105.831 45.7483 105.831 45.3102V16.7721C105.831 16.3653 105.878 16.0211 105.972 15.7395C106.097 15.4266 106.3 15.1763 106.582 14.9885C106.895 14.8008 107.349 14.7069 107.943 14.7069H118.316C119.85 14.7069 121.242 14.9416 122.494 15.4109C123.777 15.849 124.888 16.5062 125.826 17.3823C126.765 18.2585 127.485 19.3694 127.985 20.7149C128.517 22.0292 128.783 23.5625 128.783 25.3148C128.783 26.41 128.611 27.5522 128.267 28.7412C127.923 29.899 127.391 30.9943 126.671 32.0269C125.983 33.0595 125.091 33.92 123.996 34.6085C122.901 35.2969 121.571 35.688 120.006 35.7819H110.055V45.3572C110.055 45.7953 109.993 46.1708 109.868 46.4837C109.774 46.7966 109.57 47.0313 109.257 47.1878C108.976 47.3755 108.522 47.4694 107.896 47.4694ZM128.032 46.9531C127.375 47.3911 126.812 47.532 126.343 47.3755C125.905 47.219 125.482 46.8435 125.075 46.249L117.565 34.233L122.212 33.5289L128.69 43.8552C129.002 44.3558 129.19 44.7783 129.253 45.1225C129.347 45.4667 129.284 45.7796 129.065 46.0612C128.877 46.3429 128.533 46.6401 128.032 46.9531ZM110.055 31.6514H119.349C120.069 31.6514 120.741 31.5262 121.367 31.2759C121.993 30.9943 122.541 30.5875 123.01 30.0555C123.479 29.5235 123.855 28.8664 124.137 28.0841C124.418 27.3018 124.559 26.3631 124.559 25.2679C124.559 23.9223 124.309 22.7802 123.808 21.8414C123.339 20.9027 122.635 20.1986 121.696 19.7292C120.757 19.2285 119.599 18.9782 118.222 18.9782H110.055V31.6514ZM174.489 47.4694C173.957 47.4694 173.534 47.3755 173.221 47.1878C172.94 47 172.736 46.7497 172.611 46.4367C172.517 46.0925 172.47 45.7014 172.47 45.2633V16.6783C172.47 16.2715 172.533 15.9273 172.658 15.6456C172.783 15.364 173.002 15.145 173.315 14.9885C173.659 14.8008 174.129 14.7069 174.723 14.7069C175.412 14.7069 175.897 14.7695 176.178 14.8946C176.46 15.0198 176.742 15.2388 177.023 15.5518L194.672 40.5226V16.6783C194.672 16.2715 194.719 15.9273 194.813 15.6456C194.938 15.364 195.157 15.145 195.47 14.9885C195.783 14.8008 196.236 14.7069 196.831 14.7069C197.394 14.7069 197.817 14.8008 198.098 14.9885C198.411 15.1763 198.615 15.4422 198.708 15.7864C198.834 16.0994 198.896 16.4592 198.896 16.866V45.3102C198.896 45.717 198.818 46.0925 198.661 46.4367C198.536 46.7497 198.302 47 197.957 47.1878C197.644 47.3755 197.191 47.4694 196.596 47.4694C196.096 47.4694 195.673 47.4068 195.329 47.2816C195.016 47.1565 194.719 46.9218 194.437 46.5776L176.695 21.7945V45.3102C176.695 45.717 176.632 46.0925 176.507 46.4367C176.382 46.7497 176.163 47 175.85 47.1878C175.537 47.3755 175.083 47.4694 174.489 47.4694Z" fill="#078F87"/>
</g>
<path fill-rule="evenodd" clip-rule="evenodd" d="M158.015 16.6511C155.587 15.4009 152.832 14.6951 149.913 14.6951C140.126 14.6951 132.192 22.6292 132.192 32.4164C132.192 37.961 134.738 42.9108 138.725 46.1603L140.165 43.2775C137.19 40.6057 135.319 36.7296 135.319 32.4164C135.319 24.3564 141.853 17.8224 149.913 17.8224C151.676 17.8224 153.366 18.1349 154.93 18.7075L158.015 16.6511ZM162.711 25.3957C163.856 27.4787 164.507 29.8715 164.507 32.4164C164.507 40.4765 157.973 47.0105 149.913 47.0105C147.993 47.0105 146.16 46.6397 144.48 45.9658L143.079 48.772C145.182 49.6518 147.491 50.1378 149.913 50.1378C159.7 50.1378 167.635 42.2037 167.635 32.4164C167.635 28.5797 166.415 25.0278 164.343 22.127L162.711 25.3957Z" fill="#078F87"/>
<path d="M139.28 48.6882C139.303 50.2796 139.552 50.597 140.086 50.9436C140.182 50.0532 140.327 49.5556 141.697 48.6882C146.647 33.0345 150.875 27.8209 159.418 20.9784C150.465 29.8469 147.653 34.4837 144.919 42.4051C148.378 42.2448 149.918 41.2968 152.169 38.5386L149.591 38.8609C152.252 37.8356 153.573 37.0322 155.23 34.6722C152.832 35.599 150.912 35.1861 150.397 35.3166C154.945 33.9848 156.776 32.1044 159.096 27.2614L154.424 28.8724C158.45 26.9328 160.639 25.7078 163.285 20.9784C162.81 21.1774 162.465 21.283 161.674 21.4617C163.352 19.8173 163.823 18.9544 163.929 17.5952C155.126 18.5158 154.756 21.0354 152.169 24.6838C152.457 23.3748 152.707 22.6698 153.296 21.4617C152.126 22.8226 151.548 23.7153 150.719 25.6504C150.493 25.1009 150.473 24.6337 150.719 23.3949C148.438 25.8771 147.705 27.4043 147.175 30.3224C147.101 28.7202 147.07 27.7685 146.691 27.7447C145.329 30.3605 144.717 32.1337 144.275 36.6054C143.799 36.6844 143.583 36.4097 143.469 34.1889C142.355 36.8715 142.067 38.4912 142.664 41.7607L139.28 48.6882Z" fill="url(#paint0_radial_277_31)"/>
<defs>
<filter id="filter0_b_277_31" x="-0.264386" y="10.5936" width="202.992" height="40.8481" filterUnits="userSpaceOnUse" color-interpolation-filters="sRGB">
<feFlood flood-opacity="0" result="BackgroundImageFix"/>
<feGaussianBlur in="BackgroundImageFix" stdDeviation="1.91582"/>
<feComposite in2="SourceAlpha" operator="in" result="effect1_backgroundBlur_277_31"/>
<feBlend mode="normal" in="SourceGraphic" in2="effect1_backgroundBlur_277_31" result="shape"/>
</filter>
<radialGradient id="paint0_radial_277_31" cx="0" cy="0" r="1" gradientUnits="userSpaceOnUse" gradientTransform="translate(153.836 32.375) rotate(147.265) scale(17.5968 13.0064)">
<stop stop-color="#420D0A"/>
<stop offset="0.947346" stop-color="#078F87"/>
</radialGradient>
</defs>
</svg>
